<svg xmlns="http://www.w3.org/2000/svg" viewBox="0 0 16 16" shape-rendering="crispEdges">
  <!-- Antenna (zinc-600) -->
  <rect x="7" y="0" width="1" height="1" fill="#52525b"/>
  <rect x="6" y="1" width="3" height="1" fill="#52525b"/>

  <!-- Left ear (orange-700 outer, orange-500 inner) -->
  <rect x="2" y="2" width="2" height="1" fill="#c2410c"/>
  <rect x="2" y="3" width="1" height="1" fill="#c2410c"/>
  <rect x="4" y="3" width="1" height="1" fill="#c2410c"/>
  <rect x="3" y="3" width="1" height="1" fill="#f97316"/>

  <!-- Right ear -->
  <rect x="12" y="2" width="2" height="1" fill="#c2410c"/>
  <rect x="11" y="3" width="1" height="1" fill="#c2410c"/>
  <rect x="13" y="3" width="1" height="1" fill="#c2410c"/>
  <rect x="12" y="3" width="1" height="1" fill="#f97316"/>

  <!-- Head outline: left column, right column, chin -->
  <rect x="2" y="4" width="1" height="10" fill="#18181b"/>
  <rect x="13" y="4" width="1" height="10" fill="#18181b"/>
  <rect x="3" y="13" width="10" height="1" fill="#18181b"/>

  <!-- Eye sockets (zinc-900) -->
  <rect x="4" y="6" width="3" height="3" fill="#18181b"/>
  <rect x="9" y="6" width="3" height="3" fill="#18181b"/>

  <!-- Orange head fill -->
  <rect x="3" y="4" width="10" height="2" fill="#f97316"/>
  <rect x="3" y="6" width="1" height="3" fill="#f97316"/>
  <rect x="7" y="6" width="2" height="3" fill="#f97316"/>
  <rect x="12" y="6" width="1" height="3" fill="#f97316"/>
  <rect x="3" y="9" width="10" height="1" fill="#f97316"/>
  <rect x="3" y="10" width="2" height="1" fill="#f97316"/>
  <rect x="11" y="10" width="2" height="1" fill="#f97316"/>
  <rect x="3" y="11" width="1" height="2" fill="#f97316"/>
  <rect x="12" y="11" width="1" height="2" fill="#f97316"/>

  <!-- Snout (orange-700) -->
  <rect x="5" y="10" width="6" height="1" fill="#c2410c"/>
  <rect x="4" y="11" width="1" height="2" fill="#c2410c"/>
  <rect x="7" y="11" width="2" height="2" fill="#c2410c"/>
  <rect x="11" y="11" width="1" height="2" fill="#c2410c"/>

  <!-- Buck teeth (white) -->
  <rect x="5" y="11" width="2" height="2" fill="#ffffff"/>
  <rect x="9" y="11" width="2" height="2" fill="#ffffff"/>

  <!-- Cyan LED eyes -->
  <rect x="5" y="7" width="1" height="1" fill="#06b6d4"/>
  <rect x="10" y="7" width="1" height="1" fill="#06b6d4"/>
</svg>
